<svg xmlns="http://www.w3.org/2000/svg" width="320" height="520" viewBox="0 0 320 520" fill="none">
  <rect width="320" height="520" rx="28" fill="#F0FDF4"/>
  <rect x="30" y="28" width="260" height="80" rx="20" fill="#14532D"/>
  <text x="52" y="58" fill="#BBF7D0" font-family="Arial, sans-serif" font-size="14">pull_request labeled</text>
  <text x="52" y="86" fill="#FFFFFF" font-family="Arial, sans-serif" font-size="22" font-weight="700">PR Label Router</text>
  <path d="M160 108V144" stroke="#16A34A" stroke-width="8" stroke-linecap="round" stroke-dasharray="10 10"/>
  <rect x="48" y="144" width="224" height="64" rx="18" fill="#DCFCE7" stroke="#22C55E" stroke-width="3"/>
  <text x="72" y="182" fill="#166534" font-family="Arial, sans-serif" font-size="18" font-weight="700">spin up environment</text>
  <path d="M160 208V232" stroke="#16A34A" stroke-width="8" stroke-linecap="round"/>
  <rect x="48" y="232" width="224" height="64" rx="18" fill="#BBF7D0"/>
  <text x="124" y="270" fill="#166534" font-family="Arial, sans-serif" font-size="20" font-weight="700">stage</text>
  <path d="M160 296V320" stroke="#16A34A" stroke-width="8" stroke-linecap="round"/>
  <rect x="48" y="320" width="224" height="64" rx="18" fill="#DCFCE7" stroke="#22C55E" stroke-width="3"/>
  <text x="76" y="358" fill="#166534" font-family="Arial, sans-serif" font-size="18" font-weight="700">destroy environment</text>
  <path d="M160 384V414" stroke="#16A34A" stroke-width="8" stroke-linecap="round" stroke-dasharray="10 10"/>
  <rect x="36" y="414" width="248" height="72" rx="20" fill="#14532D"/>
  <text x="58" y="446" fill="#FFFFFF" font-family="Arial, sans-serif" font-size="18" font-weight="700">jobs.if + Azure deploy</text>
  <text x="58" y="470" fill="#BBF7D0" font-family="Arial, sans-serif" font-size="14">레이블에 따라 필요한 작업만 실행</text>
</svg><svg xmlns="http://www.w3.org/2000/svg" width="800" height="600" viewBox="0 0 800 600">
  <defs>
    <linearGradient id="g" x1="0" y1="0" x2="1" y2="1">
      <stop offset="0%" stop-color="#0d1117" />
      <stop offset="100%" stop-color="#161b22" />
    </linearGradient>
  </defs>
  <rect width="800" height="600" rx="28" fill="url(#g)" />
  <circle cx="646" cy="152" r="86" fill="#1f6feb" opacity="0.18" />
  <circle cx="690" cy="116" r="18" fill="#f0883e" opacity="0.95" />
  <rect x="32" y="40" width="240" height="28" rx="14" fill="#1f6feb" opacity="0.18" />
  <text x="32" y="105" font-size="34" font-weight="700" fill="#e6edf3" font-family="Arial, sans-serif">레이블 기반 트리거</text>
  <text x="32" y="150" font-size="18" fill="#c9d1d9" font-family="Arial, sans-serif">레이블 기반 트리거를 설명하는 주제 특화</text><text x="32" y="176" font-size="18" fill="#c9d1d9" font-family="Arial, sans-serif">다이어그램. 슬라이드 요약: 레이블 기반 트리거</text><text x="32" y="202" font-size="18" fill="#c9d1d9" font-family="Arial, sans-serif">PR 레이블로 워크플로우를 선택적으로 실행 레이블</text><text x="32" y="228" font-size="18" fill="#c9d1d9" font-family="Arial, sans-serif">을 풀 리퀘스트에 붙이면 GitHub</text>
  <rect x="32" y="454" width="250" height="12" rx="6" fill="#58a6ff" opacity="0.85" />
  <rect x="32" y="484" width="170" height="12" rx="6" fill="#f0883e" opacity="0.75" />
  <rect x="510" y="332" width="210" height="150" rx="18" fill="#111d2f" stroke="#58a6ff" stroke-width="2" opacity="0.9" />
  <path d="M548 404h134" stroke="#58a6ff" stroke-width="10" stroke-linecap="round" opacity="0.9" />
  <path d="M548 432h96" stroke="#c9d1d9" stroke-width="10" stroke-linecap="round" opacity="0.6" />
  <path d="M548 460h64" stroke="#c9d1d9" stroke-width="10" stroke-linecap="round" opacity="0.4" />
</svg>