<svg xmlns="http://www.w3.org/2000/svg" width="800" height="600" viewBox="0 0 800 600">
  <defs>
    <linearGradient id="bg" x1="0" y1="0" x2="1" y2="1">
      <stop offset="0%" stop-color="#0d1117" />
      <stop offset="100%" stop-color="#161b22" />
    </linearGradient>
  </defs>
  <rect width="800" height="600" rx="28" fill="url(#bg)" />
  <text x="52" y="92" font-size="34" font-weight="700" fill="#e6edf3" font-family="Arial, sans-serif">Copilot CLI Loop</text>
  <text x="52" y="130" font-size="18" fill="#c9d1d9" font-family="Arial, sans-serif">터미널에서 프롬프트, 구현, 테스트, PR까지 이어지는 흐름</text>
  <rect x="78" y="234" width="150" height="102" rx="18" fill="#111d2f" stroke="#58a6ff" stroke-width="2" />
  <rect x="254" y="234" width="150" height="102" rx="18" fill="#111d2f" stroke="#3fb950" stroke-width="2" />
  <rect x="430" y="234" width="150" height="102" rx="18" fill="#111d2f" stroke="#f0883e" stroke-width="2" />
  <rect x="606" y="234" width="116" height="102" rx="18" fill="#111d2f" stroke="#d2a8ff" stroke-width="2" />
  <text x="116" y="278" font-size="20" font-weight="700" fill="#e6edf3" font-family="Arial, sans-serif">Prompt</text>
  <text x="288" y="278" font-size="20" font-weight="700" fill="#e6edf3" font-family="Arial, sans-serif">Build</text>
  <text x="474" y="278" font-size="20" font-weight="700" fill="#e6edf3" font-family="Arial, sans-serif">Test</text>
  <text x="646" y="278" font-size="20" font-weight="700" fill="#e6edf3" font-family="Arial, sans-serif">PR</text>
  <path d="M228 285h18" stroke="#58a6ff" stroke-width="8" stroke-linecap="round" />
  <path d="M404 285h18" stroke="#3fb950" stroke-width="8" stroke-linecap="round" />
  <path d="M580 285h18" stroke="#f0883e" stroke-width="8" stroke-linecap="round" />
  <path d="M236 273l10 12-10 12" fill="none" stroke="#58a6ff" stroke-width="7" stroke-linecap="round" stroke-linejoin="round" />
  <path d="M412 273l10 12-10 12" fill="none" stroke="#3fb950" stroke-width="7" stroke-linecap="round" stroke-linejoin="round" />
  <path d="M588 273l10 12-10 12" fill="none" stroke="#f0883e" stroke-width="7" stroke-linecap="round" stroke-linejoin="round" />
  <rect x="118" y="400" width="560" height="114" rx="18" fill="#0f1724" stroke="#30363d" />
  <text x="150" y="450" font-size="22" fill="#e6edf3" font-family="Courier New, monospace">$ copilot</text>
  <text x="150" y="484" font-size="18" fill="#8b949e" font-family="Arial, sans-serif">대화형 모드와 /delegate를 오가며 개발 모멘텀을 유지</text>
</svg>