<svg xmlns="http://www.w3.org/2000/svg" width="800" height="600" viewBox="0 0 800 600">
  <defs>
    <linearGradient id="bg" x1="0" y1="0" x2="1" y2="1">
      <stop offset="0%" stop-color="#0d1117" />
      <stop offset="100%" stop-color="#161b22" />
    </linearGradient>
  </defs>
  <rect width="800" height="600" rx="28" fill="url(#bg)" />
  <text x="52" y="108" font-size="34" font-weight="700" fill="#e6edf3" font-family="Arial, sans-serif">Jekyll 변환 흐름</text>
  <text x="52" y="148" font-size="18" fill="#c9d1d9" font-family="Arial, sans-serif">Markdown 파일과 테마를 결합해</text>
  <text x="52" y="174" font-size="18" fill="#c9d1d9" font-family="Arial, sans-serif">정적 HTML 사이트로 빌드하는 구조</text>
  <rect x="74" y="270" width="160" height="120" rx="18" fill="#111d2f" stroke="#58a6ff" stroke-width="2" />
  <rect x="320" y="270" width="160" height="120" rx="18" fill="#111d2f" stroke="#f0883e" stroke-width="2" />
  <rect x="566" y="270" width="160" height="120" rx="18" fill="#111d2f" stroke="#3fb950" stroke-width="2" />
  <text x="116" y="320" font-size="22" font-weight="700" fill="#e6edf3" font-family="Arial, sans-serif">.md</text>
  <text x="106" y="352" font-size="16" fill="#c9d1d9" font-family="Arial, sans-serif">콘텐츠</text>
  <text x="361" y="320" font-size="22" font-weight="700" fill="#e6edf3" font-family="Arial, sans-serif">Theme</text>
  <text x="347" y="352" font-size="16" fill="#c9d1d9" font-family="Arial, sans-serif">레이아웃</text>
  <text x="614" y="320" font-size="22" font-weight="700" fill="#e6edf3" font-family="Arial, sans-serif">HTML</text>
  <text x="602" y="352" font-size="16" fill="#c9d1d9" font-family="Arial, sans-serif">사이트</text>
  <path d="M236 330h66" stroke="#58a6ff" stroke-width="10" stroke-linecap="round" />
  <path d="M482 330h66" stroke="#f0883e" stroke-width="10" stroke-linecap="round" />
  <path d="M286 316l16 14-16 14" fill="none" stroke="#58a6ff" stroke-width="8" stroke-linecap="round" stroke-linejoin="round" />
  <path d="M532 316l16 14-16 14" fill="none" stroke="#f0883e" stroke-width="8" stroke-linecap="round" stroke-linejoin="round" />
</svg>